<svg width="63" height="63" viewBox="0 0 63 63" fill="none" xmlns="http://www.w3.org/2000/svg">
<circle cx="31.5" cy="31.5" r="31" fill="#2EC7E9" stroke="#0500FF"/>
<path d="M23.5852 27.2727V36H22.5284V28.2102H18.1307V36H17.0739V27.2727H23.5852ZM25.0011 36V35.0625H25.2397C25.4357 35.0625 25.5991 35.0241 25.7298 34.9474C25.8604 34.8679 25.9656 34.7301 26.0451 34.5341C26.1275 34.3352 26.19 34.0597 26.2326 33.7074C26.2781 33.3523 26.3107 32.9006 26.3306 32.3523L26.4499 29.4545H30.8136V36H29.8079V30.392H27.4045L27.3022 32.7273C27.2795 33.2642 27.2312 33.7372 27.1573 34.1463C27.0863 34.5526 26.9769 34.8935 26.8292 35.169C26.6843 35.4446 26.4911 35.652 26.2496 35.7912C26.0082 35.9304 25.7056 36 25.342 36H25.0011ZM36.5962 36V30.375H34.8576C34.4656 30.375 34.1573 30.4659 33.9329 30.6477C33.7085 30.8295 33.5962 31.0795 33.5962 31.3977C33.5962 31.7102 33.6971 31.956 33.8988 32.1349C34.1033 32.3139 34.3832 32.4034 34.7383 32.4034H36.8519V33.3409H34.7383C34.2951 33.3409 33.913 33.2628 33.592 33.1065C33.271 32.9503 33.0238 32.7273 32.8505 32.4375C32.6772 32.1449 32.5906 31.7983 32.5906 31.3977C32.5906 30.9943 32.6815 30.6477 32.8633 30.358C33.0451 30.0682 33.305 29.8452 33.6431 29.6889C33.984 29.5327 34.3888 29.4545 34.8576 29.4545H37.5508V36H36.5962ZM32.2326 36L34.0906 32.7443H35.1815L33.3235 36H32.2326ZM38.9879 36L41.647 32.6761L39.022 29.4545H40.2152L42.397 32.25H42.9425V29.4545H43.9482V32.25H44.4766L46.6584 29.4545H47.8516L45.2436 32.6761L47.8857 36H46.6754L44.4595 33.1875H43.9482V36H42.9425V33.1875H42.4311L40.1982 36H38.9879Z" fill="#0500FF"/>
</svg>
