<svg width="63" height="63" viewBox="0 0 63 63" fill="none" xmlns="http://www.w3.org/2000/svg">
<circle cx="31.5" cy="31.5" r="31" fill="#2EC7E9" stroke="#0500FF"/>
<path d="M23.5852 27.2727V36H22.5284V28.2102H18.1307V36H17.0739V27.2727H23.5852ZM27.5067 36.1534C27.092 36.1534 26.7156 36.0753 26.3775 35.919C26.0394 35.7599 25.771 35.5312 25.5721 35.233C25.3732 34.9318 25.2738 34.5682 25.2738 34.142C25.2738 33.767 25.3477 33.4631 25.4954 33.2301C25.6431 32.9943 25.8406 32.8097 26.0877 32.6761C26.3349 32.5426 26.6076 32.4432 26.9059 32.3778C27.207 32.3097 27.5096 32.2557 27.8136 32.2159C28.2113 32.1648 28.5337 32.1264 28.7809 32.1009C29.0309 32.0724 29.2127 32.0256 29.3263 31.9602C29.4428 31.8949 29.5011 31.7812 29.5011 31.6193V31.5852C29.5011 31.1648 29.386 30.8381 29.1559 30.6051C28.9286 30.3722 28.5835 30.2557 28.1204 30.2557C27.6403 30.2557 27.2638 30.3608 26.9911 30.571C26.7184 30.7812 26.5266 31.0057 26.4158 31.2443L25.4613 30.9034C25.6317 30.5057 25.859 30.196 26.1431 29.9744C26.43 29.75 26.7425 29.5937 27.0806 29.5057C27.4215 29.4148 27.7567 29.3693 28.0863 29.3693C28.2965 29.3693 28.538 29.3949 28.8107 29.446C29.0863 29.4943 29.3519 29.5952 29.6076 29.7486C29.8661 29.902 30.0806 30.1335 30.2511 30.4432C30.4215 30.7528 30.5067 31.1676 30.5067 31.6875V36H29.5011V35.1136H29.4499C29.3817 35.2557 29.2681 35.4077 29.109 35.5696C28.9499 35.7315 28.7383 35.8693 28.4741 35.983C28.2099 36.0966 27.8874 36.1534 27.5067 36.1534ZM27.6602 35.25C28.0579 35.25 28.3931 35.1719 28.6658 35.0156C28.9414 34.8594 29.1488 34.6577 29.288 34.4105C29.43 34.1634 29.5011 33.9034 29.5011 33.6307V32.7102C29.4585 32.7614 29.3647 32.8082 29.2198 32.8509C29.0778 32.8906 28.913 32.9261 28.7255 32.9574C28.5408 32.9858 28.3604 33.0114 28.1843 33.0341C28.011 33.054 27.8704 33.071 27.7624 33.0852C27.5011 33.1193 27.2567 33.1747 27.0295 33.2514C26.805 33.3253 26.6232 33.4375 26.484 33.5881C26.3477 33.7358 26.2795 33.9375 26.2795 34.1932C26.2795 34.5426 26.4087 34.8068 26.6673 34.9858C26.9286 35.1619 27.2596 35.25 27.6602 35.25ZM32.3423 38.4545V29.4545H33.3139V30.4943H33.4332C33.5071 30.3807 33.6094 30.2358 33.7401 30.0597C33.8736 29.8807 34.0639 29.7216 34.3111 29.5824C34.5611 29.4403 34.8991 29.3693 35.3253 29.3693C35.8764 29.3693 36.3622 29.5071 36.7827 29.7827C37.2031 30.0582 37.5313 30.4489 37.767 30.9545C38.0028 31.4602 38.1207 32.0568 38.1207 32.7443C38.1207 33.4375 38.0028 34.0384 37.767 34.5469C37.5313 35.0526 37.2045 35.4446 36.7869 35.723C36.3693 35.9986 35.8878 36.1364 35.3423 36.1364C34.9219 36.1364 34.5852 36.0668 34.3324 35.9276C34.0795 35.7855 33.8849 35.625 33.7486 35.446C33.6122 35.2642 33.5071 35.1136 33.4332 34.9943H33.348V38.4545H32.3423ZM33.331 32.7273C33.331 33.2216 33.4034 33.6577 33.5483 34.0355C33.6932 34.4105 33.9048 34.7045 34.1832 34.9176C34.4616 35.1278 34.8026 35.233 35.206 35.233C35.6264 35.233 35.9773 35.1222 36.2585 34.9006C36.5426 34.6761 36.7557 34.375 36.8977 33.9972C37.0426 33.6165 37.1151 33.1932 37.1151 32.7273C37.1151 32.267 37.044 31.8523 36.902 31.483C36.7628 31.1108 36.5511 30.8168 36.267 30.6009C35.9858 30.3821 35.6321 30.2727 35.206 30.2727C34.7969 30.2727 34.4531 30.3764 34.1747 30.5838C33.8963 30.7884 33.6861 31.0753 33.544 31.4446C33.402 31.8111 33.331 32.2386 33.331 32.7273ZM39.6548 36V29.4545H40.6605V32.3011H41.3253L43.6776 29.4545H44.973L42.331 32.608L45.0071 36H43.7116L41.5639 33.2386H40.6605V36H39.6548Z" fill="#0500FF"/>
</svg>
