<svg width="68" height="63" viewBox="0 0 68 63" fill="none" xmlns="http://www.w3.org/2000/svg">
<circle cx="33.5" cy="31.5" r="31" fill="#2EC7E9" stroke="#0500FF"/>
<path d="M27.8817 17.2727V26H26.8249V17.2727H27.8817ZM21.984 26L24.8136 21.4489L22.2227 17.2727H23.5011L25.7681 21.142H28.9556L31.2227 17.2727H32.5011L29.8931 21.4659L32.7227 26H31.5124L29.1431 22.1307H25.5636L23.1772 26H21.984ZM37.0565 16.8636L34.244 27.3125H33.3235L36.136 16.8636H37.0565ZM37.6349 28.1136V25.0625H38.1974C38.3906 24.8864 38.5724 24.6378 38.7429 24.3168C38.9162 23.9929 39.0625 23.5611 39.1818 23.0213C39.304 22.4787 39.3849 21.7898 39.4247 20.9545L39.6122 17.2727H44.794V25.0625H45.7997V28.0966H44.794V26H38.6406V28.1136H37.6349ZM39.4588 25.0625H43.7884V18.2102H40.5668L40.4304 20.9545C40.3963 21.5909 40.3366 22.1676 40.2514 22.6847C40.1662 23.1989 40.0568 23.6548 39.9233 24.0526C39.7898 24.4474 39.6349 24.7841 39.4588 25.0625ZM17.0483 35H15.9915C15.929 34.696 15.8196 34.429 15.6634 34.1989C15.5099 33.9688 15.3224 33.7756 15.1009 33.6193C14.8821 33.4602 14.6392 33.3409 14.3722 33.2614C14.1051 33.1818 13.8267 33.142 13.5369 33.142C13.0085 33.142 12.5298 33.2756 12.1009 33.5426C11.6747 33.8097 11.3352 34.2031 11.0824 34.723C10.8324 35.2429 10.7074 35.8807 10.7074 36.6364C10.7074 37.392 10.8324 38.0298 11.0824 38.5497C11.3352 39.0696 11.6747 39.4631 12.1009 39.7301C12.5298 39.9972 13.0085 40.1307 13.5369 40.1307C13.8267 40.1307 14.1051 40.0909 14.3722 40.0114C14.6392 39.9318 14.8821 39.8139 15.1009 39.6577C15.3224 39.4986 15.5099 39.304 15.6634 39.0739C15.8196 38.8409 15.929 38.5739 15.9915 38.2727H17.0483C16.9688 38.7187 16.8239 39.1179 16.6136 39.4702C16.4034 39.8224 16.142 40.1222 15.8295 40.3693C15.517 40.6136 15.1662 40.7997 14.777 40.9276C14.3906 41.0554 13.9773 41.1193 13.5369 41.1193C12.7926 41.1193 12.1307 40.9375 11.5511 40.5739C10.9716 40.2102 10.5156 39.6932 10.1832 39.0227C9.85085 38.3523 9.68466 37.5568 9.68466 36.6364C9.68466 35.7159 9.85085 34.9205 10.1832 34.25C10.5156 33.5795 10.9716 33.0625 11.5511 32.6989C12.1307 32.3352 12.7926 32.1534 13.5369 32.1534C13.9773 32.1534 14.3906 32.2173 14.777 32.3452C15.1662 32.473 15.517 32.6605 15.8295 32.9077C16.142 33.152 16.4034 33.4503 16.6136 33.8026C16.8239 34.152 16.9688 34.5511 17.0483 35ZM18.2447 35.392V34.4545H23.5629V35.392H21.4151V41H20.4094V35.392H18.2447ZM26.6161 41.1534C26.2013 41.1534 25.8249 41.0753 25.4869 40.919C25.1488 40.7599 24.8803 40.5312 24.6815 40.233C24.4826 39.9318 24.3832 39.5682 24.3832 39.142C24.3832 38.767 24.457 38.4631 24.6048 38.2301C24.7525 37.9943 24.9499 37.8097 25.1971 37.6761C25.4442 37.5426 25.717 37.4432 26.0153 37.3778C26.3164 37.3097 26.619 37.2557 26.9229 37.2159C27.3207 37.1648 27.6431 37.1264 27.8903 37.1009C28.1403 37.0724 28.3221 37.0256 28.4357 36.9602C28.5522 36.8949 28.6104 36.7812 28.6104 36.6193V36.5852C28.6104 36.1648 28.4954 35.8381 28.2653 35.6051C28.038 35.3722 27.6928 35.2557 27.2298 35.2557C26.7496 35.2557 26.3732 35.3608 26.1005 35.571C25.8278 35.7812 25.636 36.0057 25.5252 36.2443L24.5707 35.9034C24.7411 35.5057 24.9684 35.196 25.2525 34.9744C25.5394 34.75 25.8519 34.5937 26.19 34.5057C26.5309 34.4148 26.8661 34.3693 27.1957 34.3693C27.4059 34.3693 27.6474 34.3949 27.9201 34.446C28.1957 34.4943 28.4613 34.5952 28.717 34.7486C28.9755 34.902 29.19 35.1335 29.3604 35.4432C29.5309 35.7528 29.6161 36.1676 29.6161 36.6875V41H28.6104V40.1136H28.5593C28.4911 40.2557 28.3775 40.4077 28.2184 40.5696C28.0593 40.7315 27.8477 40.8693 27.5835 40.983C27.3192 41.0966 26.9968 41.1534 26.6161 41.1534ZM26.7695 40.25C27.1673 40.25 27.5025 40.1719 27.7752 40.0156C28.0508 39.8594 28.2582 39.6577 28.3974 39.4105C28.5394 39.1634 28.6104 38.9034 28.6104 38.6307V37.7102C28.5678 37.7614 28.4741 37.8082 28.3292 37.8509C28.1871 37.8906 28.0224 37.9261 27.8349 37.9574C27.6502 37.9858 27.4698 38.0114 27.2937 38.0341C27.1204 38.054 26.9798 38.071 26.8718 38.0852C26.6104 38.1193 26.3661 38.1747 26.1388 38.2514C25.9144 38.3253 25.7326 38.4375 25.5934 38.5881C25.457 38.7358 25.3888 38.9375 25.3888 39.1932C25.3888 39.5426 25.5181 39.8068 25.7766 39.9858C26.038 40.1619 26.369 40.25 26.7695 40.25ZM35.8324 37.267V38.2045H32.2188V37.267H35.8324ZM32.4574 34.4545V41H31.4517V34.4545H32.4574ZM36.5994 34.4545V41H35.5938V34.4545H36.5994ZM43.5838 34.4545V40.0625H44.5043V43.1136H43.4986V41H38.4361V34.4545H39.4418V40.0625H42.5781V34.4545H43.5838ZM47.0589 39.517L50.2124 34.4545H51.3714V41H50.3658V35.9375L47.2294 41H46.0533V34.4545H47.0589V39.517ZM57.1509 41V35.375H55.4123C55.0202 35.375 54.712 35.4659 54.4876 35.6477C54.2631 35.8295 54.1509 36.0795 54.1509 36.3977C54.1509 36.7102 54.2518 36.956 54.4535 37.1349C54.658 37.3139 54.9379 37.4034 55.293 37.4034H57.4066V38.3409H55.293C54.8498 38.3409 54.4677 38.2628 54.1467 38.1065C53.8256 37.9503 53.5785 37.7273 53.4052 37.4375C53.2319 37.1449 53.1452 36.7983 53.1452 36.3977C53.1452 35.9943 53.2362 35.6477 53.418 35.358C53.5998 35.0682 53.8597 34.8452 54.1978 34.6889C54.5387 34.5327 54.9435 34.4545 55.4123 34.4545H58.1055V41H57.1509ZM52.7873 41L54.6452 37.7443H55.7362L53.8782 41H52.7873Z" fill="#0500FF"/>
</svg>
