<svg width="63" height="63" viewBox="0 0 63 63" fill="none" xmlns="http://www.w3.org/2000/svg">
<circle cx="31.5" cy="31.5" r="31" fill="white" stroke="#0500FF"/>
<path d="M4.41477 27.2727L7.00568 34.6193H7.10795L9.69886 27.2727H10.8068L7.60227 36H6.51136L3.30682 27.2727H4.41477ZM12.0298 36V29.4545H13.0355V36H12.0298ZM12.5412 28.3636C12.3452 28.3636 12.1761 28.2969 12.0341 28.1634C11.8949 28.0298 11.8253 27.8693 11.8253 27.6818C11.8253 27.4943 11.8949 27.3338 12.0341 27.2003C12.1761 27.0668 12.3452 27 12.5412 27C12.7372 27 12.9048 27.0668 13.044 27.2003C13.1861 27.3338 13.2571 27.4943 13.2571 27.6818C13.2571 27.8693 13.1861 28.0298 13.044 28.1634C12.9048 28.2969 12.7372 28.3636 12.5412 28.3636ZM16.8036 36.1534C16.3888 36.1534 16.0124 36.0753 15.6744 35.919C15.3363 35.7599 15.0678 35.5312 14.869 35.233C14.6701 34.9318 14.5707 34.5682 14.5707 34.142C14.5707 33.767 14.6445 33.4631 14.7923 33.2301C14.94 32.9943 15.1374 32.8097 15.3846 32.6761C15.6317 32.5426 15.9045 32.4432 16.2028 32.3778C16.5039 32.3097 16.8065 32.2557 17.1104 32.2159C17.5082 32.1648 17.8306 32.1264 18.0778 32.1009C18.3278 32.0724 18.5096 32.0256 18.6232 31.9602C18.7397 31.8949 18.7979 31.7812 18.7979 31.6193V31.5852C18.7979 31.1648 18.6829 30.8381 18.4528 30.6051C18.2255 30.3722 17.8803 30.2557 17.4173 30.2557C16.9371 30.2557 16.5607 30.3608 16.288 30.571C16.0153 30.7812 15.8235 31.0057 15.7127 31.2443L14.7582 30.9034C14.9286 30.5057 15.1559 30.196 15.44 29.9744C15.7269 29.75 16.0394 29.5937 16.3775 29.5057C16.7184 29.4148 17.0536 29.3693 17.3832 29.3693C17.5934 29.3693 17.8349 29.3949 18.1076 29.446C18.3832 29.4943 18.6488 29.5952 18.9045 29.7486C19.163 29.902 19.3775 30.1335 19.5479 30.4432C19.7184 30.7528 19.8036 31.1676 19.8036 31.6875V36H18.7979V35.1136H18.7468C18.6786 35.2557 18.565 35.4077 18.4059 35.5696C18.2468 35.7315 18.0352 35.8693 17.771 35.983C17.5067 36.0966 17.1843 36.1534 16.8036 36.1534ZM16.957 35.25C17.3548 35.25 17.69 35.1719 17.9627 35.0156C18.2383 34.8594 18.4457 34.6577 18.5849 34.4105C18.7269 34.1634 18.7979 33.9034 18.7979 33.6307V32.7102C18.7553 32.7614 18.6616 32.8082 18.5167 32.8509C18.3746 32.8906 18.2099 32.9261 18.0224 32.9574C17.8377 32.9858 17.6573 33.0114 17.4812 33.0341C17.3079 33.054 17.1673 33.071 17.0593 33.0852C16.7979 33.1193 16.5536 33.1747 16.3263 33.2514C16.1019 33.3253 15.9201 33.4375 15.7809 33.5881C15.6445 33.7358 15.5763 33.9375 15.5763 34.1932C15.5763 34.5426 15.7056 34.8068 15.9641 34.9858C16.2255 35.1619 16.5565 35.25 16.957 35.25ZM21.6392 36V29.4545H22.6108V30.4432H22.679C22.7983 30.1193 23.0142 29.8565 23.3267 29.6548C23.6392 29.4531 23.9915 29.3523 24.3835 29.3523C24.4574 29.3523 24.5497 29.3537 24.6605 29.3565C24.7713 29.3594 24.8551 29.3636 24.9119 29.3693V30.392C24.8778 30.3835 24.7997 30.3707 24.6776 30.3537C24.5582 30.3338 24.4318 30.3239 24.2983 30.3239C23.9801 30.3239 23.696 30.3906 23.446 30.5241C23.1989 30.6548 23.0028 30.8366 22.858 31.0696C22.7159 31.2997 22.6449 31.5625 22.6449 31.858V36H21.6392ZM28.6491 36.1364C28.0185 36.1364 27.4744 35.9972 27.017 35.7188C26.5625 35.4375 26.2116 35.0455 25.9645 34.5426C25.7202 34.0369 25.598 33.4489 25.598 32.7784C25.598 32.108 25.7202 31.517 25.9645 31.0057C26.2116 30.4915 26.5554 30.0909 26.9957 29.804C27.4389 29.5142 27.956 29.3693 28.5469 29.3693C28.8878 29.3693 29.2244 29.4261 29.5568 29.5398C29.8892 29.6534 30.1918 29.8381 30.4645 30.0938C30.7372 30.3466 30.9545 30.6818 31.1165 31.0994C31.2784 31.517 31.3594 32.0312 31.3594 32.642V33.0682H26.3139V32.1989H30.3366C30.3366 31.8295 30.2628 31.5 30.1151 31.2102C29.9702 30.9205 29.7628 30.6918 29.4929 30.5241C29.2259 30.3565 28.9105 30.2727 28.5469 30.2727C28.1463 30.2727 27.7997 30.3722 27.5071 30.571C27.2173 30.767 26.9943 31.0227 26.8381 31.3381C26.6818 31.6534 26.6037 31.9915 26.6037 32.3523V32.9318C26.6037 33.4261 26.6889 33.8452 26.8594 34.1889C27.0327 34.5298 27.2727 34.7898 27.5795 34.9688C27.8864 35.1449 28.2429 35.233 28.6491 35.233C28.9134 35.233 29.152 35.196 29.3651 35.1222C29.581 35.0455 29.767 34.9318 29.9233 34.7812C30.0795 34.6278 30.2003 34.4375 30.2855 34.2102L31.2571 34.483C31.1548 34.8125 30.983 35.1023 30.7415 35.3523C30.5 35.5994 30.2017 35.7926 29.8466 35.9318C29.4915 36.0682 29.0923 36.1364 28.6491 36.1364ZM35.5312 38.5909C35.0455 38.5909 34.6278 38.5284 34.2784 38.4034C33.929 38.2812 33.6378 38.1193 33.4048 37.9176C33.1747 37.7188 32.9915 37.5057 32.8551 37.2784L33.6562 36.7159C33.7472 36.8352 33.8622 36.9716 34.0014 37.125C34.1406 37.2812 34.331 37.4162 34.5724 37.5298C34.8168 37.6463 35.1364 37.7045 35.5312 37.7045C36.0597 37.7045 36.4957 37.5767 36.8395 37.321C37.1832 37.0653 37.3551 36.6648 37.3551 36.1193V34.7898H37.2699C37.196 34.9091 37.0909 35.0568 36.9545 35.233C36.821 35.4062 36.6278 35.5611 36.375 35.6974C36.125 35.831 35.7869 35.8977 35.3608 35.8977C34.8324 35.8977 34.358 35.7727 33.9375 35.5227C33.5199 35.2727 33.1889 34.9091 32.9446 34.4318C32.7031 33.9545 32.5824 33.375 32.5824 32.6932C32.5824 32.0227 32.7003 31.4389 32.9361 30.9418C33.1719 30.4418 33.5 30.0554 33.9205 29.7827C34.3409 29.5071 34.8267 29.3693 35.3778 29.3693C35.804 29.3693 36.142 29.4403 36.392 29.5824C36.6449 29.7216 36.8381 29.8807 36.9716 30.0597C37.108 30.2358 37.2131 30.3807 37.2869 30.4943H37.3892V29.4545H38.3608V36.1875C38.3608 36.75 38.233 37.2074 37.9773 37.5597C37.7244 37.9148 37.3835 38.1747 36.9545 38.3395C36.5284 38.5071 36.054 38.5909 35.5312 38.5909ZM35.4972 34.9943C35.9006 34.9943 36.2415 34.902 36.5199 34.7173C36.7983 34.5327 37.0099 34.267 37.1548 33.9205C37.2997 33.5739 37.3722 33.1591 37.3722 32.6761C37.3722 32.2045 37.3011 31.7884 37.1591 31.4276C37.017 31.0668 36.8068 30.7841 36.5284 30.5795C36.25 30.375 35.9063 30.2727 35.4972 30.2727C35.071 30.2727 34.7159 30.3807 34.4318 30.5966C34.1506 30.8125 33.9389 31.1023 33.7969 31.4659C33.6577 31.8295 33.5881 32.233 33.5881 32.6761C33.5881 33.1307 33.6591 33.5327 33.8011 33.8821C33.946 34.2287 34.1591 34.5014 34.4403 34.7003C34.7244 34.8963 35.0767 34.9943 35.4972 34.9943ZM42.8438 38.5909C42.358 38.5909 41.9403 38.5284 41.5909 38.4034C41.2415 38.2812 40.9503 38.1193 40.7173 37.9176C40.4872 37.7188 40.304 37.5057 40.1676 37.2784L40.9688 36.7159C41.0597 36.8352 41.1747 36.9716 41.3139 37.125C41.4531 37.2812 41.6435 37.4162 41.8849 37.5298C42.1293 37.6463 42.4489 37.7045 42.8438 37.7045C43.3722 37.7045 43.8082 37.5767 44.152 37.321C44.4957 37.0653 44.6676 36.6648 44.6676 36.1193V34.7898H44.5824C44.5085 34.9091 44.4034 35.0568 44.267 35.233C44.1335 35.4062 43.9403 35.5611 43.6875 35.6974C43.4375 35.831 43.0994 35.8977 42.6733 35.8977C42.1449 35.8977 41.6705 35.7727 41.25 35.5227C40.8324 35.2727 40.5014 34.9091 40.2571 34.4318C40.0156 33.9545 39.8949 33.375 39.8949 32.6932C39.8949 32.0227 40.0128 31.4389 40.2486 30.9418C40.4844 30.4418 40.8125 30.0554 41.233 29.7827C41.6534 29.5071 42.1392 29.3693 42.6903 29.3693C43.1165 29.3693 43.4545 29.4403 43.7045 29.5824C43.9574 29.7216 44.1506 29.8807 44.2841 30.0597C44.4205 30.2358 44.5256 30.3807 44.5994 30.4943H44.7017V29.4545H45.6733V36.1875C45.6733 36.75 45.5455 37.2074 45.2898 37.5597C45.0369 37.9148 44.696 38.1747 44.267 38.3395C43.8409 38.5071 43.3665 38.5909 42.8438 38.5909ZM42.8097 34.9943C43.2131 34.9943 43.554 34.902 43.8324 34.7173C44.1108 34.5327 44.3224 34.267 44.4673 33.9205C44.6122 33.5739 44.6847 33.1591 44.6847 32.6761C44.6847 32.2045 44.6136 31.7884 44.4716 31.4276C44.3295 31.0668 44.1193 30.7841 43.8409 30.5795C43.5625 30.375 43.2188 30.2727 42.8097 30.2727C42.3835 30.2727 42.0284 30.3807 41.7443 30.5966C41.4631 30.8125 41.2514 31.1023 41.1094 31.4659C40.9702 31.8295 40.9006 32.233 40.9006 32.6761C40.9006 33.1307 40.9716 33.5327 41.1136 33.8821C41.2585 34.2287 41.4716 34.5014 41.7528 34.7003C42.0369 34.8963 42.3892 34.9943 42.8097 34.9943ZM47.5142 36V29.4545H48.5199V36H47.5142ZM48.0256 28.3636C47.8295 28.3636 47.6605 28.2969 47.5185 28.1634C47.3793 28.0298 47.3097 27.8693 47.3097 27.6818C47.3097 27.4943 47.3793 27.3338 47.5185 27.2003C47.6605 27.0668 47.8295 27 48.0256 27C48.2216 27 48.3892 27.0668 48.5284 27.2003C48.6705 27.3338 48.7415 27.4943 48.7415 27.6818C48.7415 27.8693 48.6705 28.0298 48.5284 28.1634C48.3892 28.2969 48.2216 28.3636 48.0256 28.3636ZM53.021 36.1364C52.43 36.1364 51.9116 35.9957 51.4656 35.7145C51.0224 35.4332 50.6758 35.0398 50.4258 34.5341C50.1786 34.0284 50.055 33.4375 50.055 32.7614C50.055 32.0795 50.1786 31.4844 50.4258 30.9759C50.6758 30.4673 51.0224 30.0724 51.4656 29.7912C51.9116 29.5099 52.43 29.3693 53.021 29.3693C53.6119 29.3693 54.1289 29.5099 54.5721 29.7912C55.0181 30.0724 55.3647 30.4673 55.6119 30.9759C55.8619 31.4844 55.9869 32.0795 55.9869 32.7614C55.9869 33.4375 55.8619 34.0284 55.6119 34.5341C55.3647 35.0398 55.0181 35.4332 54.5721 35.7145C54.1289 35.9957 53.6119 36.1364 53.021 36.1364ZM53.021 35.233C53.4698 35.233 53.8391 35.1179 54.1289 34.8878C54.4187 34.6577 54.6332 34.3551 54.7724 33.9801C54.9116 33.6051 54.9812 33.1989 54.9812 32.7614C54.9812 32.3239 54.9116 31.9162 54.7724 31.5384C54.6332 31.1605 54.4187 30.8551 54.1289 30.6222C53.8391 30.3892 53.4698 30.2727 53.021 30.2727C52.5721 30.2727 52.2028 30.3892 51.913 30.6222C51.6232 30.8551 51.4087 31.1605 51.2695 31.5384C51.1303 31.9162 51.0607 32.3239 51.0607 32.7614C51.0607 33.1989 51.1303 33.6051 51.2695 33.9801C51.4087 34.3551 51.6232 34.6577 51.913 34.8878C52.2028 35.1179 52.5721 35.233 53.021 35.233Z" fill="#0500FF"/>
</svg>
