<svg width="61" height="61" viewBox="0 0 61 61" fill="none" xmlns="http://www.w3.org/2000/svg">
<path d="M60 30.5C60 46.7924 46.7924 60 30.5 60C14.2076 60 1 46.7924 1 30.5C1 14.2076 14.2076 1 30.5 1C46.7924 1 60 14.2076 60 30.5Z" fill="white"/>
<path d="M18.9205 35V28.4545H19.9261V35H18.9205ZM19.4318 27.3636C19.2358 27.3636 19.0668 27.2969 18.9247 27.1634C18.7855 27.0298 18.7159 26.8693 18.7159 26.6818C18.7159 26.4943 18.7855 26.3338 18.9247 26.2003C19.0668 26.0668 19.2358 26 19.4318 26C19.6278 26 19.7955 26.0668 19.9347 26.2003C20.0767 26.3338 20.1477 26.4943 20.1477 26.6818C20.1477 26.8693 20.0767 27.0298 19.9347 27.1634C19.7955 27.2969 19.6278 27.3636 19.4318 27.3636Z" fill="#0500FF"/>
<path d="M18.9205 35V28.4545H19.9261V35H18.9205ZM19.4318 27.3636C19.2358 27.3636 19.0668 27.2969 18.9247 27.1634C18.7855 27.0298 18.7159 26.8693 18.7159 26.6818C18.7159 26.4943 18.7855 26.3338 18.9247 26.2003C19.0668 26.0668 19.2358 26 19.4318 26C19.6278 26 19.7955 26.0668 19.9347 26.2003C20.0767 26.3338 20.1477 26.4943 20.1477 26.6818C20.1477 26.8693 20.0767 27.0298 19.9347 27.1634C19.7955 27.2969 19.6278 27.3636 19.4318 27.3636Z" fill="#0500FF"/>
<path d="M24.4272 35.1364C23.8136 35.1364 23.2852 34.9915 22.842 34.7017C22.3988 34.4119 22.0579 34.0128 21.8192 33.5043C21.5806 32.9957 21.4613 32.4148 21.4613 31.7614C21.4613 31.0966 21.5835 30.5099 21.8278 30.0014C22.0749 29.4901 22.4187 29.0909 22.859 28.804C23.3022 28.5142 23.8192 28.3693 24.4102 28.3693C24.8704 28.3693 25.2852 28.4545 25.6545 28.625C26.0238 28.7955 26.3263 29.0341 26.5621 29.3409C26.7979 29.6477 26.9442 30.0057 27.0011 30.4148H25.9954C25.9187 30.1165 25.7482 29.8523 25.484 29.6222C25.2227 29.3892 24.8704 29.2727 24.4272 29.2727C24.0352 29.2727 23.6914 29.375 23.396 29.5795C23.1033 29.7813 22.8746 30.0668 22.7099 30.4361C22.5479 30.8026 22.467 31.233 22.467 31.7273C22.467 32.233 22.5465 32.6733 22.7056 33.0483C22.8675 33.4233 23.0948 33.7145 23.3874 33.9219C23.6829 34.1293 24.0295 34.233 24.4272 34.233C24.6886 34.233 24.9258 34.1875 25.1389 34.0966C25.3519 34.0057 25.5323 33.875 25.68 33.7045C25.8278 33.5341 25.9329 33.3295 25.9954 33.0909H27.0011C26.9442 33.4773 26.8036 33.8253 26.5792 34.1349C26.3576 34.4418 26.0636 34.6861 25.6971 34.8679C25.3335 35.0469 24.9102 35.1364 24.4272 35.1364Z" fill="#0500FF"/>
<path d="M24.4272 35.1364C23.8136 35.1364 23.2852 34.9915 22.842 34.7017C22.3988 34.4119 22.0579 34.0128 21.8192 33.5043C21.5806 32.9957 21.4613 32.4148 21.4613 31.7614C21.4613 31.0966 21.5835 30.5099 21.8278 30.0014C22.0749 29.4901 22.4187 29.0909 22.859 28.804C23.3022 28.5142 23.8192 28.3693 24.4102 28.3693C24.8704 28.3693 25.2852 28.4545 25.6545 28.625C26.0238 28.7955 26.3263 29.0341 26.5621 29.3409C26.7979 29.6477 26.9442 30.0057 27.0011 30.4148H25.9954C25.9187 30.1165 25.7482 29.8523 25.484 29.6222C25.2227 29.3892 24.8704 29.2727 24.4272 29.2727C24.0352 29.2727 23.6914 29.375 23.396 29.5795C23.1033 29.7813 22.8746 30.0668 22.7099 30.4361C22.5479 30.8026 22.467 31.233 22.467 31.7273C22.467 32.233 22.5465 32.6733 22.7056 33.0483C22.8675 33.4233 23.0948 33.7145 23.3874 33.9219C23.6829 34.1293 24.0295 34.233 24.4272 34.233C24.6886 34.233 24.9258 34.1875 25.1389 34.0966C25.3519 34.0057 25.5323 33.875 25.68 33.7045C25.8278 33.5341 25.9329 33.3295 25.9954 33.0909H27.0011C26.9442 33.4773 26.8036 33.8253 26.5792 34.1349C26.3576 34.4418 26.0636 34.6861 25.6971 34.8679C25.3335 35.0469 24.9102 35.1364 24.4272 35.1364Z" fill="#0500FF"/>
<path d="M31.1303 35.1364C30.5394 35.1364 30.021 34.9957 29.5749 34.7145C29.1317 34.4332 28.7852 34.0398 28.5352 33.5341C28.288 33.0284 28.1644 32.4375 28.1644 31.7614C28.1644 31.0795 28.288 30.4844 28.5352 29.9759C28.7852 29.4673 29.1317 29.0724 29.5749 28.7912C30.021 28.5099 30.5394 28.3693 31.1303 28.3693C31.7212 28.3693 32.2383 28.5099 32.6815 28.7912C33.1275 29.0724 33.4741 29.4673 33.7212 29.9759C33.9712 30.4844 34.0962 31.0795 34.0962 31.7614C34.0962 32.4375 33.9712 33.0284 33.7212 33.5341C33.4741 34.0398 33.1275 34.4332 32.6815 34.7145C32.2383 34.9957 31.7212 35.1364 31.1303 35.1364ZM31.1303 34.233C31.5792 34.233 31.9485 34.1179 32.2383 33.8878C32.5281 33.6577 32.7425 33.3551 32.8817 32.9801C33.021 32.6051 33.0906 32.1989 33.0906 31.7614C33.0906 31.3239 33.021 30.9162 32.8817 30.5384C32.7425 30.1605 32.5281 29.8551 32.2383 29.6222C31.9485 29.3892 31.5792 29.2727 31.1303 29.2727C30.6815 29.2727 30.3121 29.3892 30.0224 29.6222C29.7326 29.8551 29.5181 30.1605 29.3789 30.5384C29.2397 30.9162 29.1701 31.3239 29.1701 31.7614C29.1701 32.1989 29.2397 32.6051 29.3789 32.9801C29.5181 33.3551 29.7326 33.6577 30.0224 33.8878C30.3121 34.1179 30.6815 34.233 31.1303 34.233Z" fill="#0500FF"/>
<path d="M31.1303 35.1364C30.5394 35.1364 30.021 34.9957 29.5749 34.7145C29.1317 34.4332 28.7852 34.0398 28.5352 33.5341C28.288 33.0284 28.1644 32.4375 28.1644 31.7614C28.1644 31.0795 28.288 30.4844 28.5352 29.9759C28.7852 29.4673 29.1317 29.0724 29.5749 28.7912C30.021 28.5099 30.5394 28.3693 31.1303 28.3693C31.7212 28.3693 32.2383 28.5099 32.6815 28.7912C33.1275 29.0724 33.4741 29.4673 33.7212 29.9759C33.9712 30.4844 34.0962 31.0795 34.0962 31.7614C34.0962 32.4375 33.9712 33.0284 33.7212 33.5341C33.4741 34.0398 33.1275 34.4332 32.6815 34.7145C32.2383 34.9957 31.7212 35.1364 31.1303 35.1364ZM31.1303 34.233C31.5792 34.233 31.9485 34.1179 32.2383 33.8878C32.5281 33.6577 32.7425 33.3551 32.8817 32.9801C33.021 32.6051 33.0906 32.1989 33.0906 31.7614C33.0906 31.3239 33.021 30.9162 32.8817 30.5384C32.7425 30.1605 32.5281 29.8551 32.2383 29.6222C31.9485 29.3892 31.5792 29.2727 31.1303 29.2727C30.6815 29.2727 30.3121 29.3892 30.0224 29.6222C29.7326 29.8551 29.5181 30.1605 29.3789 30.5384C29.2397 30.9162 29.1701 31.3239 29.1701 31.7614C29.1701 32.1989 29.2397 32.6051 29.3789 32.9801C29.5181 33.3551 29.7326 33.6577 30.0224 33.8878C30.3121 34.1179 30.6815 34.233 31.1303 34.233Z" fill="#0500FF"/>
<path d="M36.6371 31.0625V35H35.6314V28.4545H36.603V29.4773H36.6882C36.8416 29.1449 37.0746 28.8778 37.3871 28.6761C37.6996 28.4716 38.103 28.3693 38.5973 28.3693C39.0405 28.3693 39.4283 28.4602 39.7607 28.642C40.093 28.821 40.3516 29.0938 40.5362 29.4602C40.7209 29.8239 40.8132 30.2841 40.8132 30.8409V35H39.8075V30.9091C39.8075 30.3949 39.674 29.9943 39.407 29.7074C39.1399 29.4176 38.7734 29.2727 38.3075 29.2727C37.9865 29.2727 37.6996 29.3423 37.4467 29.4815C37.1967 29.6207 36.9993 29.8239 36.8544 30.0909C36.7095 30.358 36.6371 30.6818 36.6371 31.0625Z" fill="#0500FF"/>
<path d="M36.6371 31.0625V35H35.6314V28.4545H36.603V29.4773H36.6882C36.8416 29.1449 37.0746 28.8778 37.3871 28.6761C37.6996 28.4716 38.103 28.3693 38.5973 28.3693C39.0405 28.3693 39.4283 28.4602 39.7607 28.642C40.093 28.821 40.3516 29.0938 40.5362 29.4602C40.7209 29.8239 40.8132 30.2841 40.8132 30.8409V35H39.8075V30.9091C39.8075 30.3949 39.674 29.9943 39.407 29.7074C39.1399 29.4176 38.7734 29.2727 38.3075 29.2727C37.9865 29.2727 37.6996 29.3423 37.4467 29.4815C37.1967 29.6207 36.9993 29.8239 36.8544 30.0909C36.7095 30.358 36.6371 30.6818 36.6371 31.0625Z" fill="#0500FF"/>
<path d="M30.5 60.5C47.0685 60.5 60.5 47.0685 60.5 30.5C60.5 13.9315 47.0685 0.5 30.5 0.5C13.9315 0.5 0.5 13.9315 0.5 30.5C0.5 47.0685 13.9315 60.5 30.5 60.5Z" stroke="#0500FF"/>
</svg>
