<svg width="63" height="63" viewBox="0 0 63 63" fill="none" xmlns="http://www.w3.org/2000/svg">
<circle cx="31.5" cy="31.5" r="31" fill="#2EC7E9" stroke="#0500FF"/>
<path d="M23.5852 27.2727V36H22.5284V28.2102H18.1307V36H17.0739V27.2727H23.5852ZM28.2397 36.1364C27.6488 36.1364 27.1303 35.9957 26.6843 35.7145C26.2411 35.4332 25.8945 35.0398 25.6445 34.5341C25.3974 34.0284 25.2738 33.4375 25.2738 32.7614C25.2738 32.0795 25.3974 31.4844 25.6445 30.9759C25.8945 30.4673 26.2411 30.0724 26.6843 29.7912C27.1303 29.5099 27.6488 29.3693 28.2397 29.3693C28.8306 29.3693 29.3477 29.5099 29.7908 29.7912C30.2369 30.0724 30.5835 30.4673 30.8306 30.9759C31.0806 31.4844 31.2056 32.0795 31.2056 32.7614C31.2056 33.4375 31.0806 34.0284 30.8306 34.5341C30.5835 35.0398 30.2369 35.4332 29.7908 35.7145C29.3477 35.9957 28.8306 36.1364 28.2397 36.1364ZM28.2397 35.233C28.6886 35.233 29.0579 35.1179 29.3477 34.8878C29.6374 34.6577 29.8519 34.3551 29.9911 33.9801C30.1303 33.6051 30.1999 33.1989 30.1999 32.7614C30.1999 32.3239 30.1303 31.9162 29.9911 31.5384C29.8519 31.1605 29.6374 30.8551 29.3477 30.6222C29.0579 30.3892 28.6886 30.2727 28.2397 30.2727C27.7908 30.2727 27.4215 30.3892 27.1317 30.6222C26.842 30.8551 26.6275 31.1605 26.4883 31.5384C26.3491 31.9162 26.2795 32.3239 26.2795 32.7614C26.2795 33.1989 26.3491 33.6051 26.4883 33.9801C26.6275 34.3551 26.842 34.6577 27.1317 34.8878C27.4215 35.1179 27.7908 35.233 28.2397 35.233ZM32.7408 38.4545V29.4545H33.7124V30.4943H33.8317C33.9055 30.3807 34.0078 30.2358 34.1385 30.0597C34.272 29.8807 34.4624 29.7216 34.7095 29.5824C34.9595 29.4403 35.2976 29.3693 35.7237 29.3693C36.2749 29.3693 36.7607 29.5071 37.1811 29.7827C37.6016 30.0582 37.9297 30.4489 38.1655 30.9545C38.4013 31.4602 38.5192 32.0568 38.5192 32.7443C38.5192 33.4375 38.4013 34.0384 38.1655 34.5469C37.9297 35.0526 37.603 35.4446 37.1854 35.723C36.7678 35.9986 36.2862 36.1364 35.7408 36.1364C35.3203 36.1364 34.9837 36.0668 34.7308 35.9276C34.478 35.7855 34.2834 35.625 34.147 35.446C34.0107 35.2642 33.9055 35.1136 33.8317 34.9943H33.7464V38.4545H32.7408ZM33.7294 32.7273C33.7294 33.2216 33.8018 33.6577 33.9467 34.0355C34.0916 34.4105 34.3033 34.7045 34.5817 34.9176C34.8601 35.1278 35.201 35.233 35.6044 35.233C36.0249 35.233 36.3757 35.1222 36.657 34.9006C36.9411 34.6761 37.1541 34.375 37.2962 33.9972C37.4411 33.6165 37.5135 33.1932 37.5135 32.7273C37.5135 32.267 37.4425 31.8523 37.3004 31.483C37.1612 31.1108 36.9496 30.8168 36.6655 30.6009C36.3842 30.3821 36.0305 30.2727 35.6044 30.2727C35.1953 30.2727 34.8516 30.3764 34.5732 30.5838C34.2947 30.7884 34.0845 31.0753 33.9425 31.4446C33.8004 31.8111 33.7294 32.2386 33.7294 32.7273ZM39.1978 30.392V29.4545H44.516V30.392H42.3683V36H41.3626V30.392H39.1978Z" fill="#0500FF"/>
</svg>
